<svg xmlns="http://www.w3.org/2000/svg" viewBox="0 0 100 100" fill="#e4e4e4">
	<path d="M12.8,64.36c-1.83,0-2.75-0.9-2.75-2.7c0-1.73,0.92-2.6,2.75-2.6h5.6V36.41l-4.25,2.55c-0.8,0.47-1.52,0.58-2.17,0.35
		c-0.65-0.23-1.14-0.65-1.48-1.25c-0.33-0.6-0.43-1.26-0.3-1.98c0.13-0.72,0.6-1.31,1.4-1.77l6.9-4.15c0.67-0.4,1.33-0.74,2-1.02
		c0.67-0.28,1.28-0.42,1.85-0.42c0.7,0,1.28,0.19,1.75,0.57c0.47,0.38,0.7,1.01,0.7,1.88v27.9h5.1c1.83,0,2.75,0.87,2.75,2.6
		c0,1.8-0.92,2.7-2.75,2.7H12.8z"/>
	<path d="M50,64.86c-4.1,0-7.31-0.88-9.62-2.65c-2.32-1.77-3.48-4.22-3.48-7.35c0-2.13,0.56-3.95,1.68-5.45
		c1.12-1.5,2.57-2.55,4.38-3.15c-1.6-0.7-2.86-1.77-3.78-3.2c-0.92-1.43-1.38-3.08-1.38-4.95c0-2.97,1.1-5.29,3.3-6.98
		c2.2-1.68,5.17-2.52,8.9-2.52c3.77,0,6.75,0.84,8.95,2.52c2.2,1.68,3.3,4.01,3.3,6.98c0,1.87-0.46,3.52-1.38,4.98
		c-0.92,1.45-2.16,2.51-3.72,3.17c1.8,0.6,3.24,1.66,4.33,3.18c1.08,1.52,1.62,3.32,1.62,5.43c0,3.13-1.16,5.58-3.48,7.35
		C57.31,63.98,54.1,64.86,50,64.86z M50,59.86c4.77,0,7.15-1.82,7.15-5.45c0-3.6-2.38-5.4-7.15-5.4c-2.33,0-4.11,0.45-5.33,1.35
		s-1.82,2.25-1.82,4.05s0.61,3.16,1.82,4.08S47.67,59.86,50,59.86z M50,44.01c1.97,0,3.51-0.47,4.62-1.4
		c1.12-0.93,1.67-2.22,1.67-3.85c0-1.6-0.56-2.86-1.67-3.77c-1.12-0.92-2.66-1.38-4.62-1.38c-1.97,0-3.5,0.46-4.6,1.38
		c-1.1,0.92-1.65,2.17-1.65,3.77c0,1.63,0.55,2.92,1.65,3.85C46.5,43.55,48.03,44.01,50,44.01z"/>
	<path d="M80,62.76c-1.53,0-2.3-0.78-2.3-2.35v-8.2h-8.05c-1.5,0-2.25-0.73-2.25-2.2c0-1.47,0.75-2.2,2.25-2.2h8.05v-7.95
		c0-1.53,0.77-2.3,2.3-2.3c1.53,0,2.3,0.77,2.3,2.3v7.95h8.05c1.5,0,2.25,0.73,2.25,2.2c0,1.47-0.75,2.2-2.25,2.2H82.3v8.2
		C82.3,61.98,81.53,62.76,80,62.76z"/>
</svg>
