<svg xmlns="http://www.w3.org/2000/svg" height="300px" width="300px" fill="var(--svg-fill)" data-name="Layer 2" viewBox="0 0 48 48" x="0px" y="0px">
	<style>
		svg {
			--svg-fill: #e4e4e4;
		}
	</style>
	<title>video music player</title>
	<path d="M26,40.62a2,2,0,0,1-1.25-.43L15.3,32.62H12a6,6,0,0,1-6-6v-4a6,6,0,0,1,6-6h3.3l9.45-7.56A2,2,0,0,1,28,10.62v28a2,2,0,0,1-1.13,1.81A2.07,2.07,0,0,1,26,40.62Zm-14-20a2,2,0,0,0-2,2v4a2,2,0,0,0,2,2h4a2,2,0,0,1,1.25.44L24,34.46V14.79l-6.75,5.4a2,2,0,0,1-1.25.43Z" />
	<path d="M31.54,29.5a2,2,0,0,1-1.42-3.41,3,3,0,0,0,0-4.24A2,2,0,0,1,33,19a7,7,0,0,1,0,9.9A2,2,0,0,1,31.54,29.5Z" />
	<path d="M36.49,34.45A2,2,0,0,1,35.07,31a10,10,0,0,0,0-14.14,2,2,0,0,1,2.83-2.83,14,14,0,0,1,0,19.8A2,2,0,0,1,36.49,34.45Z" />
</svg>
