<svg xmlns="http://www.w3.org/2000/svg" viewBox="0 0 100 100" fill="var(--svg-fill)">
	<style>
		svg {
			--svg-fill: #e4e4e4;
		}
	</style>
	<path d="M48.92,89.5A20.77,20.77,0,1,1,69.69,68.73,20.8,20.8,0,0,1,48.92,89.5Zm0-37.17a16.4,16.4,0,1,0,16.4,16.4A16.42,16.42,0,0,0,48.92,52.33Z" />
	<path d="M52.26,52.7h-.12l-5.74-.14A6.62,6.62,0,0,1,40.93,49L25.23,15.86a3.75,3.75,0,0,1,.11-3.69,3.76,3.76,0,0,1,3.28-1.67H71.41a3.74,3.74,0,0,1,3.29,1.69,3.7,3.7,0,0,1,0,3.69l-17,33.47A6.47,6.47,0,0,1,52.26,52.7ZM29.6,14.87,44.88,47.15A2.34,2.34,0,0,0,46.5,48.2l5.75.13v0a2.2,2.2,0,0,0,1.59-1l16.49-32.5Z" />
	<path d="M19.8,26.77A2.19,2.19,0,0,1,18,23.39l7.29-11.24a2.18,2.18,0,1,1,3.66,2.37L21.63,25.77A2.2,2.2,0,0,1,19.8,26.77Z" />
	<path d="M40.86,54.17a2.18,2.18,0,0,1-1.74-.85l-21-27.41a2.18,2.18,0,1,1,3.46-2.66L42.59,50.66a2.19,2.19,0,0,1-.4,3.06A2.22,2.22,0,0,1,40.86,54.17Z" />
	<path d="M80.2,26.51a2.19,2.19,0,0,1-1.83-1l-7.3-11.25a2.19,2.19,0,0,1,3.67-2.38L82,23.14a2.18,2.18,0,0,1-1.83,3.37Z" />
	<path d="M59.14,53.91a2.16,2.16,0,0,1-1.33-.45,2.19,2.19,0,0,1-.4-3.06L78.47,23a2.18,2.18,0,1,1,3.46,2.66L60.88,53.06A2.18,2.18,0,0,1,59.14,53.91Z" />
	<path d="M54.31,80.33a4.08,4.08,0,0,1-1.91-.51L50.1,78.6a4.5,4.5,0,0,0-2.36,0l-2.31,1.22a3.36,3.36,0,0,1-4.25-.56,3.64,3.64,0,0,1-.69-3l.44-2.56a3.22,3.22,0,0,0-.73-2.25L38.33,69.6a3.26,3.26,0,0,1,1.89-5.82l2.58-.38A3.19,3.19,0,0,0,44.71,62l1.15-2.34a3.26,3.26,0,0,1,6.12,0L53.13,62A3.19,3.19,0,0,0,55,63.4l2.58.38a3.26,3.26,0,0,1,1.89,5.81l-1.87,1.82a3.17,3.17,0,0,0-.73,2.25l.44,2.56a3.68,3.68,0,0,1-.69,3A3,3,0,0,1,54.31,80.33ZM42.78,67.82l.47.46a7.52,7.52,0,0,1,2,6.11l-.11.68.58-.33a7.68,7.68,0,0,1,6.43,0l.58.3-.11-.64a7.54,7.54,0,0,1,2-6.12l.47-.46-.65-.09A7.51,7.51,0,0,1,49.21,64l-.29-.59-.29.59a7.51,7.51,0,0,1-5.2,3.78Z" />
	<rect x="31.65" y="22.14" width="35.85" height="4.37" />
</svg>
