<svg xmlns="http://www.w3.org/2000/svg" viewBox="0 0 96 96" fill="var(--svg-fill)">
	<style>
		svg {
			--svg-fill: #e4e4e4;
		}
	</style>
	<path d="M28,88a8.11,8.11,0,0,0,1.21-.09,7.91,7.91,0,0,0,3.07-1.17l.12-.07.09,0a7.57,7.57,0,0,0,.79-.61c.07-.07.14-.15.22-.22s.25-.24.37-.37L45,75.38l.08-.07,0,0,.15-.13a4.09,4.09,0,0,1,5.6,0l.14.12,0,0L62.13,85.42a3.22,3.22,0,0,0,.32.32l.24.24a8,8,0,0,0,.76.6l.12.06.21.13A8,8,0,0,0,76,80V20A12,12,0,0,0,64,8H32A12,12,0,0,0,20,20V80A8,8,0,0,0,28,88Z" />
</svg>
