<svg height='300px' width='300px' fill="#e4e4e4" xmlns="http://www.w3.org/2000/svg" version="1.1" viewBox="0 0 16 16">
	<path d="M7.5,14c-0.085,0-0.17-0.021-0.247-0.064C7.097,13.847,7,13.68,7,13.5v-9c0-0.176,0.092-0.338,0.243-0.429l5-3   c0.154-0.093,0.348-0.095,0.503-0.006C12.903,1.154,13,1.32,13,1.5v9c0,0.176-0.092,0.339-0.243,0.429l-5,3   C7.678,13.977,7.589,14,7.5,14z M8,4.783v7.834l4-2.4V2.383L8,4.783z M12.5,10.5h0.01H12.5z"></path>
	<path d="M1.5,14c-0.076,0-0.153-0.018-0.224-0.053C1.107,13.862,1,13.689,1,13.5v-9c0-0.157,0.074-0.306,0.2-0.4   c1.918-1.439,4.682-1.439,6.6,0c0.221,0.166,0.266,0.479,0.1,0.7C7.734,5.022,7.42,5.065,7.2,4.9C5.696,3.772,3.551,3.719,2,4.758   V12.6c1.717-0.881,3.896-0.77,5.524,0.306c1.966-1.099,4.442-1.187,6.476-0.243V4.785c-0.52-0.292-1.059-0.499-1.604-0.616   c-0.271-0.058-0.442-0.323-0.385-0.593c0.059-0.27,0.319-0.444,0.594-0.384c0.742,0.159,1.469,0.456,2.159,0.883   C14.91,4.166,15,4.327,15,4.5v9c0,0.182-0.099,0.349-0.257,0.438c-0.159,0.088-0.353,0.083-0.508-0.013   c-1.94-1.21-4.525-1.212-6.471,0c-0.175,0.107-0.399,0.1-0.564-0.024c-1.57-1.178-3.83-1.178-5.4,0C1.712,13.966,1.606,14,1.5,14z"></path>
</svg>