<svg xmlns="http://www.w3.org/2000/svg" height="300px" width="300px" fill="var(--svg-fill)" viewBox="0 0 24 24">
	<style>
		svg {
			--svg-fill: #e4e4e4;
		}
	</style>
	<title>cake</title>
	<path d="M2,15a1,1,0,0,1-.87-.51,1,1,0,0,1,.13-1.17l11-12A1,1,0,0,1,13,1h1a9,9,0,0,1,9,9,1,1,0,0,1-.8,1l-20,4ZM13.44,3,4.81,12.42,21,9.19A7,7,0,0,0,14,3ZM22,10h0Z" />
	<path d="M2,23a1,1,0,0,1-.63-.23A1,1,0,0,1,1,22V14a1,1,0,0,1,.8-1l20-4a1,1,0,0,1,.83.21A1,1,0,0,1,23,10v8a1,1,0,0,1-.8,1l-20,4Zm1-8.18v6l18-3.6v-6Z" />
	<path d="M4.77,19.44a2.94,2.94,0,0,1-2-1c-.35-.31-.54-.46-.69-.45a1,1,0,0,1-.12-2A2.87,2.87,0,0,1,4.1,17c.45.41.57.48.76.45s.26-.16.52-.71A2.72,2.72,0,0,1,7.32,14.9a2.73,2.73,0,0,1,2.49.94c.45.41.58.48.76.45s.26-.16.52-.71A2.72,2.72,0,0,1,13,13.76a2.73,2.73,0,0,1,2.49.94c.45.41.58.48.76.45s.26-.16.52-.71a2.75,2.75,0,0,1,1.94-1.83,2.77,2.77,0,0,1,2.5.93c.35.32.53.46.7.46a1,1,0,1,1,.12,2,2.91,2.91,0,0,1-2.17-1c-.45-.41-.57-.48-.76-.45s-.26.16-.52.71a2.75,2.75,0,0,1-1.94,1.83,2.77,2.77,0,0,1-2.5-.94c-.44-.41-.57-.49-.75-.45s-.27.15-.52.7A2.75,2.75,0,0,1,11,18.25a2.77,2.77,0,0,1-2.5-.94c-.44-.41-.57-.49-.75-.45s-.27.15-.52.7a2.75,2.75,0,0,1-1.94,1.83A2.8,2.8,0,0,1,4.77,19.44Z" />
	<circle cx="14" cy="5" r="1" />
	<circle cx="17" cy="6" r="1" />
	<circle cx="19" cy="8" r="1" />
</svg>
