<svg xmlns="http://www.w3.org/2000/svg" height="300px" width="300px" fill="var(--svg-fill)" viewBox="0 0 24 24" x="0px" y="0px">
	<style>
		svg {
			--svg-fill: #e4e4e4;
		}
	</style>
	<title>conversation bubble</title>
	<path d="M7.68,19H2a1,1,0,0,1-.92-.62,1,1,0,0,1,.21-1.09L3,15.62A9,9,0,1,1,19,9.14a1,1,0,0,1-1.57.91A5.93,5.93,0,0,0,14,9a6,6,0,0,0-6,6,5.89,5.89,0,0,0,.58,2.56,1,1,0,0,1-.05,1A1,1,0,0,1,7.68,19ZM4.41,17H6.25A7.83,7.83,0,0,1,6,15a8,8,0,0,1,8-8,8.14,8.14,0,0,1,2.51.4A7,7,0,0,0,3,10a7,7,0,0,0,2.05,5,1,1,0,0,1,0,1.41Z" />
	<path d="M22,23H14a7.91,7.91,0,0,1-7.22-4.57A7.77,7.77,0,0,1,6,15a8,8,0,1,1,14.73,4.32l2,2a1,1,0,0,1,.21,1.09A1,1,0,0,1,22,23ZM14,9a6,6,0,0,0-6,6,6,6,0,0,0,6,6h5.59l-.88-.87a1,1,0,0,1-.06-1.35A6,6,0,0,0,14,9Z" />
</svg>
