<svg xmlns="http://www.w3.org/2000/svg" viewBox="0 0 96 96" fill="#e4e4e4">
	<path d="M76,16H60V12a4,4,0,0,0-4-4H40a4,4,0,0,0-4,4v4H20a8,8,0,0,0-8,8v4a8,8,0,0,0,8,8h.22l2.35,40.69A12,12,0,0,0,34.55,88h26.9a12,12,0,0,0,12-11.31L75.78,36H76a8,8,0,0,0,8-8V24A8,8,0,0,0,76,16ZM65.44,76.23a4,4,0,0,1-4,3.77H34.55a4,4,0,0,1-4-3.77L28.24,36H67.76ZM72,28H20V24H76v4Z"/>
	<path d="M40,76a4,4,0,0,0,4-4V44a4,4,0,0,0-8,0V72A4,4,0,0,0,40,76Z"/>
	<path d="M56,76a4,4,0,0,0,4-4V44a4,4,0,0,0-8,0V72A4,4,0,0,0,56,76Z"/>
</svg>