<svg height='300px' width='300px' fill="#e4e4e4" xmlns="http://www.w3.org/2000/svg"
	 version="1.1" x="0px" y="0px" viewBox="0 0 96 96"
	 style="enable-background:new 0 0 96 96;" xml:space="preserve">
	<path d="M48,92C23.7,92,4,72.3,4,48S23.7,4,48,4s44,19.7,44,44S72.3,92,48,92z M48,12c-19.9,0-36,16.1-36,36    s16.1,36,36,36s36-16.1,36-36S67.9,12,48,12z"></path>
	<path d="M60,64c-1,0-2-0.4-2.8-1.2l-24-24c-1.6-1.6-1.6-4.1,0-5.7c1.6-1.6,4.1-1.6,5.7,0l24,24    c1.6,1.6,1.6,4.1,0,5.7C62.1,63.6,61,64,60,64z"></path>
	<path d="M36,64c-1,0-2-0.4-2.8-1.2c-1.6-1.6-1.6-4.1,0-5.7l24-24c1.6-1.6,4.1-1.6,5.7,0c1.6,1.6,1.6,4.1,0,5.7    l-24,24C38,63.6,37,64,36,64z"></path>
</svg>
