<svg height='300px' width='300px' fill="#e4e4e4" xmlns="http://www.w3.org/2000/svg" viewBox="0 0 24 24">
	<title>phicture</title>
	<path d="M20,7H15a1,1,0,0,1-1-1V1a1,1,0,0,1,.62-.92,1,1,0,0,1,1.09.21l5,5a1,1,0,0,1,.21,1.09A1,1,0,0,1,20,7ZM16,5h1.59L16,3.41Z"></path>
	<path d="M20,24H4a1,1,0,0,1-1-1V1A1,1,0,0,1,4,0H15a1,1,0,0,1,.71.29l5,5A1,1,0,0,1,21,6V23A1,1,0,0,1,20,24ZM5,22H19V6.41L14.59,2H5Z"></path>
	<polygon points="18 18 10.29 18 11.13 16.69 14.14 12 18 18"></polygon>
	<polygon points="11.13 16.69 10.29 18 6 18 9 13.5 11.13 16.69"></polygon>
	<circle cx="8.5" cy="10.5" r="1.5"></circle>
</svg>
