<svg xmlns="http://www.w3.org/2000/svg" height="300px" width="300px" fill="var(--svg-fill)" viewBox="0 0 24 24">
	<style>
		svg {
			--svg-fill: #e4e4e4;
		}
	</style>
	<title>video</title>
	<path d="M20,7H15a1,1,0,0,1-1-1V1a1,1,0,0,1,.62-.92,1,1,0,0,1,1.09.21l5,5a1,1,0,0,1,.21,1.09A1,1,0,0,1,20,7ZM16,5h1.59L16,3.41Z" />
	<path d="M20,24H4a1,1,0,0,1-1-1V1A1,1,0,0,1,4,0H15a1,1,0,0,1,.71.29l5,5A1,1,0,0,1,21,6V23A1,1,0,0,1,20,24ZM5,22H19V6.41L14.59,2H5Z" />
	<path d="M9,17.75a1,1,0,0,1-.48-.12A1,1,0,0,1,8,16.75V9.25A1,1,0,0,1,9.53,8.4l6,3.75a1,1,0,0,1,0,1.7l-6,3.75A1,1,0,0,1,9,17.75Zm1-6.7V15L13.11,13Z" />
</svg>
