<svg height='300px' width='300px' fill="#e4e4e4" xmlns="http://www.w3.org/2000/svg" data-name="Layer 2"
	 viewBox="0 0 48 48" x="0px" y="0px">
	<title>video music player</title>
	<path d="M34 17 36 17a2 2 0 0 0 0-4l-2 0a2 2 0 0 0-4 0L12 13a2 2 0 0 0 0 4L30 17a2 2 0 0 0 4 0Z"></path>
	<path d="M26 35 36 35a2 2 0 0 0 0-4L26 31a2 2 0 0 0-4 0L12 31a2 2 0 0 0 0 4L22 35a2 2 0 0 0 4 0Z"></path>
	<path d="M18 26 36 26a2 2 0 0 0 0-4L18 22a2 2 0 0 0-4 0l-2 0a2 2 0 0 0 0 4L14 26a2 2 0 0 0 4 0Z"></path>
</svg>