<svg xmlns="http://www.w3.org/2000/svg" height="300px" width="300px" fill="var(--svg-fill)" viewBox="0 0 48 48">
	<style>
		svg {
			--svg-fill: #e4e4e4;
		}
	</style>
	<path d="M20.247 41.719a2.531 2.531 0 0 1-1.19-.304A2.531 2.531 0 0 1 17.716 39.188V27.278L6.731 10.179a2.531 2.531 0 0 1-.089-2.531A2.531 2.531 0 0 1 8.857 6.281H39.232a2.531 2.531 0 0 1 2.126 3.898L30.372 27.278V34.125a2.531 2.531 0 0 1-1.126 2.101l-7.594 5.063A2.455 2.455 0 0 1 20.247 41.719ZM13.489 11.344l8.859 13.821A2.531 2.531 0 0 1 22.779 26.531v7.923l2.531-1.683V26.531a2.531 2.531 0 0 1 .405-1.367l8.859-13.821Z" />
</svg>
