<svg height='300px' width='300px'  fill="#e4e4e4" xmlns="http://www.w3.org/2000/svg" data-name="Layer 2" viewBox="0 0 48 48" x="0px" y="0px"><title>video music player</title><path d="M36,38H28a2,2,0,0,1,0-4h6V28a2,2,0,0,1,4,0v8A2,2,0,0,1,36,38Z"></path><path d="M12,22a2,2,0,0,1-2-2V12a2,2,0,0,1,2-2h8a2,2,0,0,1,0,4H14v6A2,2,0,0,1,12,22Z"></path><path d="M36,22.14a2,2,0,0,1-2-2v-6H28a2,2,0,0,1,0-4h8a2,2,0,0,1,2,2v8A2,2,0,0,1,36,22.14Z"></path><path d="M20,38H12a2,2,0,0,1-2-2V28a2,2,0,0,1,4,0v6h6a2,2,0,0,1,0,4Z"></path></svg>