<svg xmlns="http://www.w3.org/2000/svg" viewBox="0 0 60 60" fill="#e4e4e4">
	<path d="M36.1583252,22.7470093h-2v14.5097656h2c1.9482422,0,3.7705078-0.7543945,5.1318359-2.1245117  c1.3730469-1.3833008,2.1289063-3.2070313,2.1289063-5.1352539C43.4190674,25.9994507,40.1622314,22.7470093,36.1583252,22.7470093z  "/>
	<path d="M51,13.9499512H9c-2.210022,0-4,1.7999878-4,4v24.1000366c0,2.1999512,1.789978,4,4,4h42c2.210022,0,4-1.8000488,4-4  V17.9499512C55,15.749939,53.210022,13.9499512,51,13.9499512z M26.6612549,37.590271c0,0.5522461-0.4472656,1-1,1s-1-0.4477539-1-1  v-6.9238281h-8.0791016v6.9238281c0,0.5522461-0.4472656,1-1,1s-1-0.4477539-1-1V21.743103c0-0.5522461,0.4472656-1,1-1  s1,0.4477539,1,1v6.9233398h8.0791016V21.743103c0-0.5522461,0.4472656-1,1-1s1,0.4477539,1,1V37.590271z M42.7091064,36.5414429  c-1.7402344,1.7509766-4.0664063,2.715332-6.5507813,2.715332h-3c-0.5527344,0-1-0.4477539-1-1V21.7470093  c0-0.5522461,0.4472656-1,1-1h3c5.1064453,0,9.2607422,4.1494141,9.2607422,9.25  C45.4190674,32.4569702,44.4561768,34.781189,42.7091064,36.5414429z"/>
</svg>