<svg xmlns="http://www.w3.org/2000/svg" viewBox="0 0 48 48" fill="var(--svg-fill)">
	<style>
		svg {
			--svg-fill: #e4e4e4;
		}
	</style>
	<path d="M24,7a2,2,0,0,0,0,4A13,13,0,1,1,11,24a2,2,0,0,0-3.37-1.45A2,2,0,0,0,7,24v.06A17,17,0,1,0,24,7Z" />
	<path d="M18.56,12a2.08,2.08,0,0,0,.73-.13,2,2,0,1,0-.73.13Z" />
	<path d="M9.4,20A2,2,0,0,0,12,18.94,2,2,0,1,0,9.4,20Z" />
	<path d="M13.55,15.24a2,2,0,1,0-1.39-3.44h0a2,2,0,0,0,1.4,3.44Z" />
	<path d="M22,24.39a1.21,1.21,0,0,0,.05.18l.06.19a1.28,1.28,0,0,0,.11.2,1.09,1.09,0,0,0,.08.15,1.79,1.79,0,0,0,.25.31L27.14,30A2,2,0,0,0,30,27.14l-4-4V16a2,2,0,0,0-4,0v8h0A1.72,1.72,0,0,0,22,24.39Z" />
</svg>
