<svg xmlns="http://www.w3.org/2000/svg" viewBox="0 0 100 100" fill="var(--svg-fill)">
	<style>
		svg {
			--svg-fill: #e4e4e4;
		}
	</style>
	<path d="M71.1,39.1c-1.7-1.4-6.1-4.5-6.5-4.8c-5.2-4.6-7.2-8.9-5.2-16.9c0.5-2-0.8-4-2.8-4.5c-0.8-0.2-1.7-0.1-2.5,0.3  c-12.3,6-17.3,18.6-16.3,29.8c-1.6-2.4-2.5-5.1-2.7-8c-0.2-2.1-2-3.6-4.1-3.4c-1.1,0.1-2.2,0.8-2.8,1.7C22,42.9,20,48.6,20,57.8  c0,16.6,13.4,30,30,30s30-13.4,30-30C80,49.8,76.8,43.9,71.1,39.1z M50,80.4c-12.4,0-22.5-10-22.5-22.4c0,0,0-0.1,0-0.1  c0-7.6,1.6-10.3,2.7-13C33,50.4,37.7,54,42.5,54c2.1,0,3.8-1.7,3.8-3.7c0-0.3,0-0.5-0.1-0.8c-3.2-15.1,2.5-22.7,5-25.1  c0.4,6.3,3.5,11,8.4,15.5c0.8,0.7,5.4,3.9,6.6,5c4.1,3.5,6.3,7.4,6.3,13c0.1,12.4-9.9,22.5-22.2,22.5C50.2,80.4,50.1,80.4,50,80.4z" />
</svg>
