<svg xmlns="http://www.w3.org/2000/svg" version="1.1" fill="#e4e4e4" viewBox="0 0 512 512">
	<path
		d="m455.126 89.102c-20.771-30.209-53.355-50.166-89.397-54.789-36.083-4.646-72.544 6.333-100.021 30.125-41.896 36.229-55.44 95.04-34.437 145.627l-169.792 146.853c-18.771 16.229-20.833 44.729-4.604 63.499l39.458 45.625c6.667 7.708 16.062 11.646 25.521 11.646 7.812 0 15.667-2.708 22.042-8.209l9.979-8.625c14.062-12.166 15.604-33.5 3.437-47.563l-16.146-18.687 27.375-23.687 16.146 18.687c5.896 6.812 14.083 10.917 23.062 11.583 9.021.646 17.687-2.25 24.5-8.125l9.979-8.646c6.812-5.896 10.917-14.083 11.583-23.062.646-8.979-2.229-17.687-8.125-24.5l-16.146-18.687 54.48-47.125c51.375 30.75 116.832 22 158.645-22.229 41.021-43.396 46.271-110.56 12.458-159.728zm-106.48 134.917c-34.209 0-62.043-27.812-62.043-62.043 0-34.209 27.812-62.043 62.043-62.043 34.209 0 62.043 27.812 62.043 62.043 0 34.209-27.812 62.043-62.043 62.043z" />
</svg>