<svg xmlns="http://www.w3.org/2000/svg" viewBox="0 0 100 100" fill="var(--svg-fill)">
	<style>
		svg {
			--svg-fill: #e4e4e4;
		}
	</style>
	<path d="M34,84c-0.598,0-1.198-0.178-1.716-0.539c-1.153-0.805-1.593-2.303-1.058-3.604L42.285,53H32   c-1.236,0-2.346-0.759-2.795-1.911c-0.449-1.152-0.145-2.461,0.766-3.298l37-34c1.036-0.951,2.593-1.057,3.747-0.251   c1.153,0.805,1.593,2.302,1.058,3.603L60.715,44H71c1.236,0,2.347,0.759,2.795,1.911c0.449,1.152,0.146,2.462-0.765,3.298l-37,34   C35.46,83.732,34.731,84,34,84z M39.698,47h7.066c1.001,0,1.936,0.499,2.493,1.331s0.663,1.886,0.281,2.812l-7.621,18.507L63.302,50h-7.066c-1.001,0-1.936-0.499-2.492-1.331c-0.558-0.832-0.663-1.886-0.282-2.812l7.621-18.508L39.698,47z" />
</svg>
