<svg xmlns="http://www.w3.org/2000/svg" height="300px" width="300px" fill="var(--svg-fill)" viewBox="0 0 48 48">
	<style>
		svg {
			--svg-fill: #e4e4e4;
		}
	</style>
	<path d="M35.92,20h-3V17a9,9,0,0,0-18,0v3h-3a2,2,0,0,0-2,2V38a2,2,0,0,0,2,2h24a2,2,0,0,0,2-2V22A2,2,0,0,0,35.92,20Zm-17-3a5,5,0,0,1,10,0v3h-10Zm15,19h-20V24h20Z" />
	<path d="M23.92,26.46a2.5,2.5,0,0,0-2.5,2.5,2.44,2.44,0,0,0,.51,1.49.13.13,0,0,0,0,.06v2a2,2,0,0,0,4,0v-2s0,0,0-.06A2.44,2.44,0,0,0,26.42,29,2.5,2.5,0,0,0,23.92,26.46Z" />
</svg>
