<svg viewBox="0 0 10 10
" height='300px' width='300px' xmlns="http://www.w3.org/2000/svg">
	<!-- Generator script https://jsfiddle.net/RaiderB/hzfp4q6t/4/ -->
	<circle cx="5" cy="5" r="5" fill="#fbdbdb"></circle>
	<path id="path1" fill="#f5aeae" d="
		M 0.669872981077807 7.5
		A 5 5 0 1 1 9 8
		c -1,0 -1.4990381056766575,-0.5 -2.4990381056766573,-0.5
		c -1,0 -1.9155444566227673,1 -2.9155444566227673,1
		S 1.669872981077807,7.5 0.669872981077807,7.5
		"></path>
	<path id="path2" fill="#F28C8C" d="
		M 0.02506281446690073 5.5
		A 5 5 0 1 1 9.974937185533099 5.5
		c -1,0 -4.472430904086409,1 -5.472430904086409,1
		c -1,0 -2.4824560298731693,-1 -3.4824560298731693,-1
		S 1.0250628144669007,5.5 0.02506281446690073,5.5
		"></path>
	<path id="path3" fill="#ed6969" d="
		M 0.02506281446690073 5.5
		A 5 5 0 0 1 9.582575694955839 3
		c -1,0 -1.8672538641466816,1.5 -2.8672538641466816,1.5
		c -1,0 -2.345129508171129,-0.9999999999999999 -3.345129508171129,-0.9999999999999999
		S 1.0250628144669007,5.5 0.02506281446690073,5.5
		"></path>
	<path id="path4" fill="#e83c3c" d="
		M 0.669872981077807 2.5
		A 5 5 0 0 1 7.999999999999999 1
		c -1,0 -2.298557158514986,1.5 -3.2985571585149867,1.5
		c -1,0 -1.1990381056766575,-0.4999999999999999 -2.1990381056766575,-0.4999999999999999
		S 1.669872981077807,2.5 0.669872981077807,2.5
		"></path>

</svg>
