<svg height='300px' width='300px'  fill="#e4e4e4" xmlns="http://www.w3.org/2000/svg" data-name="Layer 2" viewBox="0 0 48 48" x="0px" y="0px"><title>video music player</title><path d="M26.87,8.82a2,2,0,0,0-2.12.24L15.3,16.62H12a6,6,0,0,0-6,6v4a6,6,0,0,0,6,6h3.3l9.45,7.57a2,2,0,0,0,1.25.43,2.07,2.07,0,0,0,.87-.19A2,2,0,0,0,28,38.62v-28A2,2,0,0,0,26.87,8.82ZM24,34.46l-6.75-5.4A2,2,0,0,0,16,28.62H12a2,2,0,0,1-2-2v-4a2,2,0,0,1,2-2h4a2,2,0,0,0,1.25-.43L24,14.79Z"></path><path d="M38.83,24l2.58-2.59a2,2,0,0,0-2.82-2.82L36,21.17l-2.59-2.58a2,2,0,0,0-2.82,2.82L33.17,24l-2.58,2.59a2,2,0,1,0,2.82,2.82L36,26.83l2.59,2.58a2,2,0,0,0,2.82-2.82Z"></path></svg>