<svg xmlns="http://www.w3.org/2000/svg" viewBox="0 0 100 100" fill="none" stroke="#e4e4e4" stroke-width="7px">
	<path d="M88 50.04c0-3.68-8.4-6-9.44-9.28-1.12-3.44 4.32-10.24 2.24-13.04-2.08-2.88-10.24.16-13.12-1.92C64.8 23.72 65.2 15 61.76 13.88c-3.28-1.04-8.08 6.16-11.76 6.16-3.68 0-8.4-7.2-11.76-6.16C34.8 15 35.2 23.72 32.4 25.8c-2.88 2.08-11.04-.96-13.12 1.92-2.08 2.88 3.28 9.6 2.24 13.04C20.4 44.04 12 46.36 12 50.04S20.4 56.04 21.44 59.32c1.12 3.44-4.32 10.24-2.24 13.04 2.08 2.88 10.24-.16 13.12 1.92 2.88 2.08 2.48 10.8 5.92 11.84 3.28 1.04 8.08-6.16 11.76-6.16 3.68 0 8.4 7.2 11.76 6.16 3.44-1.12 3.04-9.76 5.92-11.84 2.88-2.08 11.04.96 13.12-1.92 2.08-2.88-3.28-9.6-2.24-13.04C79.6 56.04 88 53.72 88 50.04z"/>
</svg>