<svg xmlns="http://www.w3.org/2000/svg" height="300px" width="300px" fill="var(--svg-fill)" viewBox="0 0 48 48" x="0px" y="0px">
	<style>
		svg {
			--svg-fill: #e4e4e4;
		}
	</style>
	<title>video music player</title>
	<path d="M34,36H14a2,2,0,0,1-2-2V22.35A11.36,11.36,0,0,1,23.35,11h1.3A11.36,11.36,0,0,1,36,22.35V34A2,2,0,0,1,34,36ZM16,32H32V22.35A7.36,7.36,0,0,0,24.65,15h-1.3A7.36,7.36,0,0,0,16,22.35Z" />
	<path d="M36,36H12a2,2,0,0,1,0-4H36a2,2,0,0,1,0,4Z" />
	<path d="M24,41a7,7,0,0,1-7-7,2,2,0,0,1,4,0,3,3,0,0,0,6,0,2,2,0,0,1,4,0A7,7,0,0,1,24,41Z" />
	<path d="M24,15a2,2,0,0,1-2-2V9a2,2,0,0,1,4,0v4A2,2,0,0,1,24,15Z" />
</svg>
