<svg xmlns="http://www.w3.org/2000/svg" viewBox="0 0 24 30" fill="#88ff76">
	<path d="M16.05225,5.44373C17.83478,4.90009,19,4.00909,19,3c0-1.65686-3.134-3-7-3S5,1.34314,5,3C5,4.00909,6.16522,4.90009,7.94775,5.44373a.4089.4089,0,0,1,.28913.33306L8.44794,7.3595a.41213.41213,0,0,1-.23273.42029C7.31305,8.2276,6.75,8.83032,6.75,9.5,6.75,10.88068,9.10052,12,12,12s5.25-1.11932,5.25-2.5c0-.66968-.56305-1.2724-1.46521-1.72021a.41213.41213,0,0,1-.23273-.42029l.21106-1.58271A.4089.4089,0,0,1,16.05225,5.44373Z" />
	<path d="M10.46613,13.91119l1.16351,9.76368a.37351.37351,0,0,0,.74072,0l1.16351-9.76368a13.29042,13.29042,0,0,1-3.06774,0Z" />
</svg>
