<svg xmlns="http://www.w3.org/2000/svg" fill="var(--svg-fill)" viewBox="0 0 100 100">
	<style>
		svg {
			--svg-fill: #e4e4e4;
		}
	</style>
	<path d="M152.0,767.6 c47.04,0,67.2,-35.7,67.2,-58.8 c0,-51.66,-118.86,-63.0,-118.86,-149.52 l0,-35.28 l103.32,0 l0,22.68 c0,55.02,116.34,59.64,116.34,174.72 c0,81.06,-65.1,147.0,-168.0,147.0 c-94.08,0,-168.0,-61.32,-168.0,-159.6 c0,0,0,0,21.0,0 l58.8,0 c21.0,0,21.0,0,21.0,0 c0,23.1,20.16,58.8,67.2,58.8 Z M152.0,469.4 c-32.34,0,-58.8,-26.46,-58.8,-58.8 c0,-32.34,26.46,-58.8,58.8,-58.8 c32.34,0,58.8,26.46,58.8,58.8 c0,32.34,-26.46,58.8,-58.8,58.8 Z M1025.0,716.0 c39.9,0,39.9,0,42.0,24.36 l23.1,287.28 c2.1,24.36,-1.26,24.36,-26.88,24.36 l-76.44,0 c-25.62,0,-28.98,0,-26.88,-24.36 l23.1,-287.28 c2.1,-24.36,2.1,-24.36,42.0,-24.36 Z M1025.0,543.8 c34.86,0,63.0,28.56,63.0,63.0 c0,34.86,-28.14,63.0,-63.0,63.0 c-34.44,0,-63.0,-28.14,-63.0,-63.0 c0,-34.44,28.56,-63.0,63.0,-63.0 Z M750,400 c-74,0,-100,26,-100,100 l0,600 c0,74,26,100,100,100 l550,0 c74,0,100,-26,100,-100 l0,-600 c0,-74,-26,-100,-100,-100 Z M0,-4 l0,300 l293,-7 Z M-100,200 c-74,0,-100,26,-100,100 l0,600 c0,74,26,100,100,100 l550,0 c74,0,100,-26,100,-100 l0,-600 c0,-74,-26,-100,-100,-100 Z M1200,200 l-275,275 l275,1 Z M1200,200 " transform="matrix(0.0583333333333,0.0,0.0,-0.0583333333333,15.0,85.0)" />
</svg>
