<svg height='300px' width='300px' fill="#e4e4e4" xmlns="http://www.w3.org/2000/svg" viewBox="0 0 24 24" x="0px" y="0px">
	<path d="M12,22.5A10.52,10.52,0,0,1,1.73,9.79a1,1,0,0,1,2,.42A8.05,8.05,0,0,0,3.5,12a8.5,8.5,0,0,0,14.24,6.27c.19-.18.36-.36.53-.54a1,1,0,1,1,1.46,1.38c-.21.22-.42.44-.64.63A10.39,10.39,0,0,1,12,22.5Z"></path>
	<path d="M21.29,15l-.21,0a1,1,0,0,1-.77-1.19A8.05,8.05,0,0,0,20.5,12,8.5,8.5,0,0,0,6.26,5.73,1,1,0,0,1,4.9,4.27,10.4,10.4,0,0,1,12,1.5,10.52,10.52,0,0,1,22.27,14.21,1,1,0,0,1,21.29,15Z"></path>
	<path d="M10,7H5A1,1,0,0,1,4,6V1A1,1,0,0,1,6,1V5h4a1,1,0,0,1,0,2Z"></path>
	<path d="M19,24a1,1,0,0,1-1-1V19H14a1,1,0,0,1,0-2h5a1,1,0,0,1,1,1v5A1,1,0,0,1,19,24Z"></path>
</svg>
