<svg xmlns="http://www.w3.org/2000/svg" viewBox="0 0 100 100" fill="#e4e4e4">
	<path d="M59.2009659,64.9217072H10.1151237c-2.8133187,0-5.1151252-2.3018036-5.1151252-5.1151199v-0.0000114  c0-2.8133202,2.3018064-5.1151237,5.1151252-5.1151237h49.0858421c2.8133202,0,5.1151276,2.3018036,5.1151276,5.1151237v0.0000114  C64.3160934,62.6199036,62.014286,64.9217072,59.2009659,64.9217072z"/>
	<path d="M63.3662338,43.9937744H10.1151237c-2.8133187,0-5.1151252-2.3018074-5.1151252-5.1151276v-0.0000076  c0-2.8133202,2.3018064-5.1151276,5.1151252-5.1151276h53.2511101c2.8133163,0,5.1151276,2.3018074,5.1151276,5.1151276v0.0000076  C68.4813614,41.691967,66.1795502,43.9937744,63.3662338,43.9937744z"/>
	<path d="M53.6134109,85.9512405H10.1151237c-2.8133187,0-5.1151252-2.3018036-5.1151252-5.1151276v-0.0000076  c0-2.8133163,2.3018064-5.1151276,5.1151252-5.1151276h43.4982872c2.8133163,0,5.1151237,2.3018112,5.1151237,5.1151276v0.0000076  C58.7285347,83.649437,56.4267273,85.9512405,53.6134109,85.9512405z"/>
	<path d="M94.6307755,45.3542747L86.9708099,58.621727c-1.0490723,1.8170433-3.6717453,1.8170433-4.7208099,0l-7.6599655-13.2674522  c-1.0490723-1.8170395,0.2622604-4.0883408,2.360405-4.0883408h15.319931  C94.3685074,41.265934,95.6798477,43.5372353,94.6307755,45.3542747z"/>
	<path d="M68.2426453,23.4722042H10.1151237c-2.8133187,0-5.1151252-2.3018074-5.1151252-5.1151257V18.357069  c0-2.8133192,2.3018064-5.1151257,5.1151252-5.1151257h58.1275215c2.813324,0,5.1151276,2.3018064,5.1151276,5.1151257v0.0000095  C73.3577728,21.1703968,71.0559692,23.4722042,68.2426453,23.4722042z"/>
</svg>