<svg height='300px' width='300px' fill="#e4e4e4" xmlns="http://www.w3.org/2000/svg" data-name="Layer 2"
	 viewBox="0 0 48 48">
	<path d="M40.935 22.518 40.658 19.35l1.083.909A2 2 0 1 0 44.345 17.201L39.537 13.185a1.79 1.79 0 0 0-.331-.222 1.19 1.19 0 0 0-.157-.077c-.07.006-.136-.058-.208-.082l-.204-.042a.84.84 0 0 0-.174-.035 2 2 0 0 0-.777.068 .84.84 0 0 0-.165.065l-.194.077c-.07.006-.123.081-.191.117a1.19 1.19 0 0 0-.142.103 1.79 1.79 0 0 0-.287.276L32.669 18.222a2 2 0 0 0-.464 1.466A2 2 0 0 0 35.767 20.812l.909-1.083L36.951 22.867A13 13 0 1 1 22.867 11.049a2 2 0 0 0-.349-3.985A17 17 0 1 0 40.935 22.518Z"></path>
</svg>
