<svg xmlns="http://www.w3.org/2000/svg" viewBox="0 0 64 64" fill="var(--svg-fill)">
	<style>
		svg {
			--svg-fill: #e4e4e4;
		}
	</style>
	<path d="M17.489,48.632l-6.9,6.9a1.5,1.5,0,0,1-2.121-2.121l6.9-6.9a1.5,1.5,0,0,1,2.121,2.121Zm-2.327-7.481a1.5,1.5,0,0,0-2.323-1.9L6.328,47.226a1.5,1.5,0,0,0,2.324,1.9Zm7.687,7.687-7.973,6.511a1.5,1.5,0,0,0,1.9,2.323l7.972-6.51a1.5,1.5,0,0,0-1.9-2.324ZM12.689,31.121a16.939,16.939,0,0,1,5.056,1.486c.748-1.352,2.008-3.554,3.654-6.152a20.633,20.633,0,0,0-9.059,2.814A1,1,0,0,0,12.689,31.121Zm20.19,20.191a1,1,0,0,0,1.852.348,20.65,20.65,0,0,0,2.815-9.06c-2.6,1.646-4.8,2.907-6.153,3.655A16.937,16.937,0,0,1,32.879,51.312ZM53.6,25.026c-6.22,8.62-20.24,16.72-24.04,18.81l-3.64-3.64,9.19-9.19a1.509,1.509,0,0,0,0-2.12,1.491,1.491,0,0,0-2.12,0l-9.19,9.19-3.64-3.64c2.09-3.8,10.19-17.82,18.81-24.04a21.763,21.763,0,0,1,18.38-3.75A21.763,21.763,0,0,1,53.6,25.026Zm-4.24-10.39a6.105,6.105,0,0,0-10.42,4.32,6.1,6.1,0,0,0,10.42,4.31A6.108,6.108,0,0,0,49.364,14.636Zm-4.32,1.21a3.107,3.107,0,0,0-3.1,3.11,3.046,3.046,0,0,0,.91,2.19,3.165,3.165,0,0,0,4.39,0,3.105,3.105,0,0,0-2.2-5.3Zm-24.71,25.69a1.506,1.506,0,0,0,2.13,2.13l3.46-3.47-2.12-2.12Z" />
</svg>
