<svg xmlns="http://www.w3.org/2000/svg" width="100" height="100" fill="var(--svg-fill)" viewBox="0 0 100 100">
	<style>
		svg {
			--svg-fill: #e4e4e4;
		}
	</style>
	<path d="m 32.50022,75.342152 q -5.85,0 -5.85,-5.775 v -26.625 q 0,-5.7 5.55,-5.7 5.55,0 5.55,5.7 v 1.35 q 2.7,-6.675 11.175,-7.2 1.875,-0.15 2.85,0.975 1.05,1.05 1.125,3.525 0.15,2.325 -0.975,3.675 -1.05,1.35 -3.6,1.65 l -1.725,0.15 q -8.4,0.825 -8.4,8.55 v 13.95 q 0,5.775 -5.7,5.775 z" />
	<path d="m 60.025112,76.617152 q -0.675,2.1 -2.325,2.775 -1.575,0.675 -3.225,0.15 -1.65,-0.45 -2.55,-1.875 -0.975,-1.425 -0.225,-3.675 l 16.95,-52.875 q 0.675,-2.1 2.25,-2.775 1.65,-0.675 3.3,-0.225 1.65,0.45 2.55,1.95 0.975,1.425 0.225,3.6 z" />
</svg>
