<svg height='300px' width='300px'  fill="#e4e4e4" xmlns="http://www.w3.org/2000/svg" data-name="Layer 2" viewBox="0 0 48 48" x="0px" y="0px"><title>video music player</title><path d="M38,22H35.82a11.91,11.91,0,0,0-2-4.94l1.54-1.54a2,2,0,1,0-2.82-2.83l-1.55,1.54A11.91,11.91,0,0,0,26,12.18V10a2,2,0,0,0-4,0v2.18a11.91,11.91,0,0,0-4.94,2.05l-1.54-1.54a2,2,0,0,0-2.83,2.82l1.54,1.55A11.91,11.91,0,0,0,12.18,22H10a2,2,0,0,0,0,4h2.18a11.91,11.91,0,0,0,2.05,4.94l-1.54,1.55A2,2,0,0,0,14.1,35.9a2,2,0,0,0,1.42-.59l1.54-1.54a11.91,11.91,0,0,0,4.94,2V38a2,2,0,0,0,4,0V35.82a11.91,11.91,0,0,0,4.94-2l1.55,1.54a2,2,0,1,0,2.82-2.82l-1.54-1.55a11.91,11.91,0,0,0,2-4.94H38a2,2,0,0,0,0-4ZM24,32a8,8,0,1,1,8-8A8,8,0,0,1,24,32Z"></path></svg>