<svg height='300px' width='300px' fill="#e4e4e4" xmlns="http://www.w3.org/2000/svg" viewBox="0 0 48 48">
	<title>video music player</title>
	<path d="M41.5 21.5H38.775a14.888 14.888 0 0 0-2.5-6.175l1.925-1.925a2.5 2.5 0 1 0-3.525-3.537l-1.937 1.925A14.888 14.888 0 0 0 26.5 9.225V6.5a2.5 2.5 0 0 0-5 0v2.725a14.888 14.888 0 0 0-6.175 2.563l-1.925-1.925a2.5 2.5 0 0 0-3.537 3.525l1.925 1.938A14.888 14.888 0 0 0 9.225 21.5H6.5a2.5 2.5 0 0 0 0 5h2.725a14.888 14.888 0 0 0 2.563 6.175l-1.925 1.938A2.5 2.5 0 0 0 11.625 38.875a2.5 2.5 0 0 0 1.775-.738l1.925-1.925a14.888 14.888 0 0 0 6.175 2.5V41.5a2.5 2.5 0 0 0 5 0V38.775a14.888 14.888 0 0 0 6.175-2.5l1.938 1.925a2.5 2.5 0 1 0 3.525-3.525l-1.925-1.937a14.888 14.888 0 0 0 2.5-6.175H41.5a2.5 2.5 0 0 0 0-5ZM24 34a10 10 0 1 1 10-10A10 10 0 0 1 24 34Z"></path>
</svg>