<svg height='300px' width='300px' fill="#e4e4e4" xmlns="http://www.w3.org/2000/svg"
	 version="1.1" x="0px" y="0px" viewBox="0 0 96 96"
	 style="enable-background:new 0 0 96 96;" xml:space="preserve">
	<path d="M48,4C23.7,4,4,23.7,4,48s19.7,44,44,44s44-19.7,44-44S72.3,4,48,4z M48,84c-19.9,0-36-16.1-36-36    s16.1-36,36-36s36,16.1,36,36S67.9,84,48,84z"></path>
	<path d="M66.4,31L40.9,56.5L29.6,45.2c-1.6-1.6-4.1-1.6-5.7,0c-1.6,1.6-1.6,4.1,0,5.7L38.1,65    c0.8,0.8,1.8,1.2,2.8,1.2c1,0,2-0.4,2.8-1.2L72,36.7c1.6-1.6,1.6-4.1,0-5.7C70.5,29.5,67.9,29.5,66.4,31z"></path>
</svg>
