<svg xmlns="http://www.w3.org/2000/svg" height="300px" width="300px" fill="var(--svg-fill)" viewBox="0 0 24 24" x="0px" y="0px">
	<style>
		svg {
			--svg-fill: #e4e4e4;
		}
	</style>
	<path d="M18.5,14.5a1,1,0,0,1-.71-.29,1,1,0,0,1,0-1.42L21.59,9l-3.8-3.79a1,1,0,0,1,1.42-1.42l4.5,4.5a1,1,0,0,1,0,1.42l-4.5,4.5A1,1,0,0,1,18.5,14.5Z" />
	<path d="M5.5,20.5a1,1,0,0,1-.71-.29l-4.5-4.5a1,1,0,0,1,0-1.42l4.5-4.5a1,1,0,0,1,1.42,1.42L2.41,15l3.8,3.79a1,1,0,0,1,0,1.42A1,1,0,0,1,5.5,20.5Z" />
	<path d="M15,16H1a1,1,0,0,1,0-2H15a1,1,0,0,1,0,2Z" />
	<path d="M23,10H9A1,1,0,0,1,9,8H23a1,1,0,0,1,0,2Z" />
</svg>
