<svg xmlns="http://www.w3.org/2000/svg" viewBox="0 0 512 512" fill="var(--svg-fill)">
	<style>
		svg {
			--svg-fill: #e4e4e4;
		}
	</style>
	<path d="M181.1,467.2L181.1,467.2c11.7,11.7,27.1,17.5,42.4,17.5c15.4,0,30.7-5.8,42.4-17.5l200.7-200.7   c11.3-11.3,17.7-27,17.6-43L483,88.8c-0.1-15.7-6.3-30.6-17.4-41.7c-11.1-11.2-25.9-17.5-41.6-17.7l-133.4-2.1   c-16.1-0.3-32,6.1-43.4,17.6L45.4,246.6C22,270,22,308.1,45.4,331.5L181.1,467.2z M73.6,274.9L275.5,73.1c3.7-3.7,8.9-5.9,14.1-5.9   c0.1,0,0.2,0,0.3,0l133.4,2.1c10.9,0.2,19.6,8.9,19.7,19.8l1.2,134.8c0,5.3-2.1,10.6-5.9,14.3L237.7,438.9   c-7.8,7.8-20.5,7.8-28.3,0L73.6,303.2C65.8,295.4,65.8,282.7,73.6,274.9z" />
	<path d="M362.6,203.8c14.4,0,27.9-5.6,38-15.7c21-21,21-55.1,0-76c-10.2-10.2-23.6-15.7-38-15.7s-27.9,5.6-38,15.7c-21,21-21,55.1,0,76C334.7,198.2,348.2,203.8,362.6,203.8z M352.9,140.3c2.6-2.6,6-4,9.7-4s7.1,1.4,9.7,4   c5.4,5.4,5.4,14.1,0,19.4v0c-2.6,2.6-6,4-9.7,4s-7.1-1.4-9.7-4C347.5,154.4,347.5,145.6,352.9,140.3z" />
</svg>
