<svg xmlns="http://www.w3.org/2000/svg" viewBox="0 0 44 44" fill="var(--svg-fill)">
	<style>
		svg {
			--svg-fill: #e4e4e4;
		}
	</style>
	<path d="M24,35H19.89a2.27,2.27,0,0,1-2.29-2.3V12.38A3.45,3.45,0,0,1,21,9h1.93a3.45,3.45,0,0,1,3.39,3.4V32.72A2.27,2.27,0,0,1,24,35Z" />
	<path d="M10.72,35H6.88a2.28,2.28,0,0,1-2.3-2.3V21.63A3.39,3.39,0,0,1,8,18.24H9.62A3.39,3.39,0,0,1,13,21.63V32.72A2.28,2.28,0,0,1,10.72,35Z" />
	<path d="M37,35H33.27a2.43,2.43,0,0,1-2.38-2.39V26.86a3.48,3.48,0,0,1,3.49-3.48h1.55a3.48,3.48,0,0,1,3.49,3.48v5.77A2.37,2.37,0,0,1,37,35Z" />
</svg>
