<svg xmlns="http://www.w3.org/2000/svg" viewBox="0 0 24 24" fill="#e4e4e4">
	<path d="M13,16.018a1,1,0,0,1-.707-1.707l9.43-9.431a1,1,0,1,1,1.414,1.414l-9.43,9.431A1,1,0,0,1,13,16.018Z"/>
	<path d="M22.968,12.935h0a1,1,0,0,1-1-1.005L22,6.007,16.09,6.05h-.007a1,1,0,0,1-.007-2L22.993,4H23a1,1,0,0,1,1,1l-.032,6.934A1,1,0,0,1,22.968,12.935Z"/>
	<path d="M1.018,20a1,1,0,0,1-.707-1.707l7.982-7.982a1,1,0,0,1,1.414,1.414L1.725,19.707A1,1,0,0,1,1.018,20Z"/>
	<path d="M13,16.018a1,1,0,0,1-.707-.293l-4-4a1,1,0,0,1,1.414-1.414l4,4A1,1,0,0,1,13,16.018Z"/>
</svg>