<svg xmlns="http://www.w3.org/2000/svg" width="48" height="48" fill="var(--svg-fill)">
	<style>
		svg {
			--svg-fill: #e4e4e4;
		}
	</style>
	<path d="m12,37.94a2,2 0 0 1 -2,-2.28l1,-6.72a2,2 0 0 1 0.57,-1.13l17.26,-17.28a2,2 0 0 1 2.82,0l5.76,5.75a2,2 0 0 1 0,2.83l-17.28,17.28a2,2 0 0 1 -1.13,0.61l-6.72,1l-0.28,-0.06zm6.72,-3l0,0zm-3.87,-4.82l-0.49,3.42l3.42,-0.49l15.39,-15.35l-2.93,-2.93l-15.39,15.35z" />
	<path d="m36.55389,27.0488l-11.8724,0a1.48405,1.48405 0 0 0 -1.48405,1.48405l0,7.9137a1.48405,1.48405 0 0 0 1.48405,1.48405l11.8724,0a1.48405,1.48405 0 0 0 1.48405,-1.48405l0,-7.9137a1.48405,1.48405 0 0 0 -1.48405,-1.48405zm-5.04206,5.4409a0.15026,0.15026 0 0 0 -0.02226,0.02597l-0.02411,0.02411a1.11304,1.11304 0 0 1 -1.69553,0l-0.02411,-0.02411a0.2764,0.2764 0 0 0 -0.02226,-0.02597l-4.08114,-3.94942l9.9487,0l-4.07928,3.94942zm-6.83034,3.95685l0,-6.78211l4.01065,3.8845l0,0a2.58781,2.58781 0 0 0 3.84369,0l0,0l4.01806,-3.8845l0,6.78211l-11.8724,0z" />
</svg>
